# xmcd
#
# Track frame offsets: 
#        150
#        14270
#        23460
#        33795
#        45142
#        58102
#        72770
#        87204
#        98835
#        112615
#
# Disc length: 1650 seconds
#
# Revision: 0
# Processed by: cddbd v1.5.2PL0 Copyright (c) Steve Scherf et al.
# Submitted via: ExactAudioCopy v0.95a5
#
DISCID=6106700a
DTITLE=Kenny Rogers Vs Frankie Laine D2 - Dueling Country
DYEAR=1999
DGENRE=Country
TTITLE0=Frankie Laine - Don't Fence Me In
TTITLE1=Frankie Laine - Rawhide
TTITLE2=Frankie Laine - I Believe
TTITLE3=Frankie Laine - Answer Me
TTITLE4=Frankie Laine - Moonlight Gambler
TTITLE5=Frankie Laine - Jealousy
TTITLE6=Frankie Laine- There Must Be A Reason
TTITLE7=Frankie Laine - Strange Lady In Town
TTITLE8=Frankie Laine - Cool Water
TTITLE9=Frankie Laine - Rose, Rose I Love You
EXTD=
EXTT0=
EXTT1=
EXTT2=
EXTT3=
EXTT4=
EXTT5=
EXTT6=
EXTT7=
EXTT8=
EXTT9=
PLAYORDER=
